<svg width="375" height="630" viewBox="0 0 375 630" fill="none" xmlns="http://www.w3.org/2000/svg">
<g filter="url(#filter0_d_112_55)">
<path d="M-16 554C0.802946 544.964 48.5 601 140.5 604.5C199.817 606.757 36.5 459.5 219 491.5C245.043 496.066 279.202 522.946 356.5 539C416.5 551.461 337.5 459 354 400.311C368.026 350.422 382.473 380.555 395.5 354.5C423.5 298.5 452 217.982 411 163.982C411 163.982 331.5 146.5 260 146.5C223 146.5 62 222.5 10.5 182C-32.9272 147.848 -25.5001 21 147 59C319.5 97 374 27.9998 380.5 13.9998" stroke="black" stroke-width="12"/>
<path d="M-16 554C0.802946 544.964 48.5 601 140.5 604.5C199.817 606.757 36.5 459.5 219 491.5C245.043 496.066 279.202 522.946 356.5 539C416.5 551.461 337.5 459 354 400.311C368.026 350.422 382.473 380.555 395.5 354.5C423.5 298.5 452 217.982 411 163.982C411 163.982 331.5 146.5 260 146.5C223 146.5 62 222.5 10.5 182C-32.9272 147.848 -25.5001 21 147 59C319.5 97 374 27.9998 380.5 13.9998" stroke="url(#paint0_linear_112_55)" stroke-width="12"/>
</g>
<defs>
<filter id="filter0_d_112_55" x="-33.7418" y="0.573145" width="486.164" height="628.853" filterUnits="userSpaceOnUse" color-interpolation-filters="sRGB">
<feFlood flood-opacity="0" result="BackgroundImageFix"/>
<feColorMatrix in="SourceAlpha" type="matrix" values="0 0 0 0 0 0 0 0 0 0 0 0 0 0 0 0 0 0 127 0" result="hardAlpha"/>
<feOffset dy="4"/>
<feGaussianBlur stdDeviation="7.45"/>
<feComposite in2="hardAlpha" operator="out"/>
<feColorMatrix type="matrix" values="0 0 0 0 0.584314 0 0 0 0 0.74902 0 0 0 0 0.113725 0 0 0 0.25 0"/>
<feBlend mode="normal" in2="BackgroundImageFix" result="effect1_dropShadow_112_55"/>
<feBlend mode="normal" in="SourceGraphic" in2="effect1_dropShadow_112_55" result="shape"/>
</filter>
<linearGradient id="paint0_linear_112_55" x1="-11.9999" y1="384.412" x2="366.532" y2="441.029" gradientUnits="userSpaceOnUse">
<stop stop-color="#A3DB1E"/>
<stop offset="1" stop-color="#88A61C"/>
</linearGradient>
</defs>
</svg>
