<svg width="1762" height="998" viewBox="0 0 1762 998" fill="none" xmlns="http://www.w3.org/2000/svg">
<g filter="url(#filter0_d_5_163)">
<path d="M1497.5 20.5C1595.5 407 869.5 239 990.5 407C1068.42 515.19 1474 684 1616 494C1758 304 1946 783 1587.5 734.5C1229 686 1052.97 721.372 990.5 825C926 932 621.206 1012.2 382.5 882C223 795 97.5 935.167 20.5 976.5" stroke="black" stroke-width="2"/>
<path d="M1497.5 20.5C1595.5 407 869.5 239 990.5 407C1068.42 515.19 1474 684 1616 494C1758 304 1946 783 1587.5 734.5C1229 686 1052.97 721.372 990.5 825C926 932 621.206 1012.2 382.5 882C223 795 97.5 935.167 20.5 976.5" stroke="url(#paint0_linear_5_163)" stroke-width="2"/>
<path d="M1497.5 20.5C1595.5 407 869.5 239 990.5 407C1068.42 515.19 1474 684 1616 494C1758 304 1946 783 1587.5 734.5C1229 686 1052.97 721.372 990.5 825C926 932 621.206 1012.2 382.5 882C223 795 97.5 935.167 20.5 976.5" stroke="white" stroke-width="2"/>
</g>
<defs>
<filter id="filter0_d_5_163" x="0.226978" y="0.454273" width="1814.51" height="996.727" filterUnits="userSpaceOnUse" color-interpolation-filters="sRGB">
<feFlood flood-opacity="0" result="BackgroundImageFix"/>
<feColorMatrix in="SourceAlpha" type="matrix" values="0 0 0 0 0 0 0 0 0 0 0 0 0 0 0 0 0 0 127 0" result="hardAlpha"/>
<feOffset/>
<feGaussianBlur stdDeviation="9.9"/>
<feComposite in2="hardAlpha" operator="out"/>
<feColorMatrix type="matrix" values="0 0 0 0 1 0 0 0 0 1 0 0 0 0 1 0 0 0 1 0"/>
<feBlend mode="normal" in2="BackgroundImageFix" result="effect1_dropShadow_5_163"/>
<feBlend mode="normal" in="SourceGraphic" in2="effect1_dropShadow_5_163" result="shape"/>
</filter>
<linearGradient id="paint0_linear_5_163" x1="20.5" y1="507.25" x2="1754.99" y2="767.152" gradientUnits="userSpaceOnUse">
<stop stop-color="#A3DB1E"/>
<stop offset="1" stop-color="#88A61C"/>
</linearGradient>
</defs>
</svg>
