<svg width="42" height="55" viewBox="0 0 42 55" fill="none" xmlns="http://www.w3.org/2000/svg">
<path d="M21.899 1V5.96046e-08H19.899V1H21.899ZM19.899 54C19.899 54.5523 20.3467 55 20.899 55C21.4513 55 21.899 54.5523 21.899 54H19.899ZM41 34.6154H42V32.6154H41V34.6154ZM20.2203 53.3214C19.9587 53.8078 20.1409 54.4142 20.6273 54.6758C21.1137 54.9374 21.7201 54.7552 21.9817 54.2688L20.2203 53.3214ZM0.999999 32.6152H-1.37091e-06V34.6152H0.999999V32.6152ZM19.899 1V53.795H21.899V1H19.899ZM19.899 53.795V54H21.899V53.795H19.899ZM41 32.6154C38.3865 32.6154 35.7852 34.0579 33.4378 35.9976C31.0649 37.9582 28.8073 40.5476 26.8631 43.0992C24.9142 45.6568 23.2556 48.2094 22.0855 50.1197C21.4998 51.0758 21.0351 51.8732 20.7162 52.4329C20.5567 52.7128 20.4336 52.9334 20.3499 53.0847C20.3081 53.1604 20.2761 53.2188 20.2544 53.2586C20.2435 53.2786 20.2352 53.2939 20.2295 53.3044C20.2267 53.3097 20.2245 53.3137 20.2229 53.3166C20.2222 53.318 20.2216 53.3191 20.2211 53.3199C20.2209 53.3203 20.2207 53.3207 20.2206 53.3209C20.2204 53.3212 20.2203 53.3214 21.101 53.7951C21.9817 54.2688 21.9817 54.2689 21.9817 54.2689C21.9817 54.2688 21.9818 54.2687 21.9819 54.2685C21.9821 54.2681 21.9825 54.2673 21.983 54.2663C21.9841 54.2643 21.9859 54.261 21.9883 54.2566C21.9931 54.2477 22.0005 54.2341 22.0105 54.2158C22.0304 54.1793 22.0604 54.1244 22.1003 54.0523C22.18 53.908 22.2989 53.695 22.4539 53.4231C22.7638 52.8792 23.2177 52.1001 23.7909 51.1644C24.9385 49.291 26.5586 46.7986 28.4539 44.3113C30.3537 41.818 32.5054 39.3624 34.7117 37.5394C36.9433 35.6954 39.0908 34.6154 41 34.6154V32.6154ZM20.899 53.795C21.828 53.4248 21.8278 53.4245 21.8277 53.4241C21.8276 53.4239 21.8274 53.4234 21.8272 53.423C21.8269 53.4221 21.8264 53.4208 21.8258 53.4193C21.8245 53.4162 21.8228 53.4119 21.8206 53.4065C21.8162 53.3955 21.8098 53.3798 21.8015 53.3594C21.7849 53.3186 21.7605 53.2593 21.7284 53.1826C21.6644 53.0294 21.5697 52.8068 21.4455 52.5248C21.1972 51.9609 20.8303 51.1586 20.3531 50.1973C19.3999 48.277 18.0004 45.7097 16.2187 43.1359C14.4406 40.5675 12.2576 37.9569 9.72773 35.9803C7.19668 34.0028 4.25929 32.6152 0.999999 32.6152V34.6152C3.67 34.6152 6.18463 35.7501 8.49639 37.5563C10.8093 39.3634 12.8599 41.7978 14.5743 44.2743C16.2849 46.7454 17.6367 49.223 18.5617 51.0865C19.0235 52.017 19.3775 52.7912 19.6152 53.3309C19.734 53.6007 19.8237 53.8117 19.8832 53.954C19.9129 54.0252 19.9351 54.0792 19.9496 54.1148C19.9569 54.1326 19.9622 54.1458 19.9656 54.1542C19.9673 54.1584 19.9686 54.1615 19.9693 54.1633C19.9696 54.1642 19.9699 54.1648 19.97 54.1651C19.9701 54.1653 19.9701 54.1653 19.9701 54.1653C19.9701 54.1653 19.97 54.1651 20.899 53.795Z" fill="white"/>
</svg>
